<svg xmlns="http://www.w3.org/2000/svg" viewBox="0 0 16 16" width="16" height="16">
  <!-- The re/read mark: a page holding a single letter r. Drawn to match the
       Firefox toolbar set: ~1.5px lines, full-height on the 16px grid, the
       browser's icon color tokens #5b5b66 (light theme) / #fbfbfe (dark).
       Generated by tools/icon/make-icons.mjs - edit there, not here. -->
  <rect x="1.477" y="0.778" width="13.01" height="14.42" rx="2.333" fill="none" stroke="#fbfbfe" stroke-width="1.504"/>
  <path d="M5.741 9.015l0 3.759l-1.661 0l0 -3.764l1.662 0l0 -5.592l1.636 0.007l0 0.852c0.046 -0.064 0.094 -0.125 0.146 -0.185c0.509 -0.594 1.242 -0.891 2.2 -0.891c0.436 0 0.83 0.069 1.182 0.206c0.351 0.137 0.679 0.366 0.982 0.684l-1.073 1.006c-0.182 -0.176 -0.382 -0.302 -0.6 -0.379c-0.218 -0.077 -0.473 -0.115 -0.764 -0.115c-0.606 0 -1.103 0.176 -1.491 0.528c-0.388 0.352 -0.582 0.885 -0.582 1.6l0 2.284l-1.636 0Z" fill="#fbfbfe"/>
</svg>
